<svg width="200" height="200" viewBox="0 0 200 200" version="1.1" xmlns="http://www.w3.org/2000/svg" xmlns:xlink="http://www.w3.org/1999/xlink">
<title>Google</title>
<desc>Created using Figma</desc>
<g id="Canvas" transform="translate(-415 -2566)">
<g id="Google">
<g id="Google">
<g id="Vector">
<use xlink:href="#path0_fill" transform="translate(488.943 2657.95)" fill="#333333"/>
</g>
<g id="Vector">
<use xlink:href="#path1_fill" transform="translate(508.347 2657.95)" fill="#333333"/>
</g>
<g id="Vector">
<use xlink:href="#path2_fill" transform="translate(527.742 2657.95)" fill="#333333"/>
</g>
<g id="Vector">
<use xlink:href="#path3_fill" transform="translate(547.255 2649.03)" fill="#333333"/>
</g>
<g id="Vector">
<use xlink:href="#path4_fill" transform="translate(552.749 2657.95)" fill="#333333"/>
</g>
<g id="Vector">
<use xlink:href="#path5_fill" transform="translate(460.286 2648)" fill="#333333"/>
</g>
</g>
</g>
</g>
<defs>
<path id="path0_fill" d="M 17.9888 8.99594C 17.9888 14.1753 13.9504 17.9919 8.9944 17.9919C 4.03838 17.9919 0 14.1753 0 8.99594C 0 3.78008 4.03838 0 8.9944 0C 13.9504 0 17.9888 3.78008 17.9888 8.99594ZM 14.0515 8.99594C 14.0515 5.75935 11.7109 3.54484 8.9944 3.54484C 6.27789 3.54484 3.93732 5.75935 3.93732 8.99594C 3.93732 12.2001 6.27789 14.447 8.9944 14.447C 11.7109 14.447 14.0515 12.196 14.0515 8.99594Z"/>
<path id="path1_fill" d="M 17.9888 8.99594C 17.9888 14.1753 13.9504 17.9919 8.9944 17.9919C 4.03838 17.9919 0 14.1753 0 8.99594C 0 3.78414 4.03838 0 8.9944 0C 13.9504 0 17.9888 3.78008 17.9888 8.99594ZM 14.0515 8.99594C 14.0515 5.75935 11.7109 3.54484 8.9944 3.54484C 6.27789 3.54484 3.93733 5.75935 3.93733 8.99594C 3.93733 12.2001 6.27789 14.447 8.9944 14.447C 11.7109 14.447 14.0515 12.196 14.0515 8.99594Z"/>
<path id="path2_fill" d="M 17.1884 0.543488L 17.1884 16.694C 17.1884 23.3375 13.2834 26.0509 8.66696 26.0509C 4.32135 26.0509 1.7059 23.1347 0.71955 20.7499L 4.14753 19.3182C 4.75794 20.7823 6.25364 22.5101 8.66292 22.5101C 11.6179 22.5101 13.4492 20.6809 13.4492 17.2375L 13.4492 15.9437L 13.3117 15.9437C 12.4305 17.0347 10.7326 17.9878 8.59016 17.9878C 4.1071 17.9878 -1.72711e-06 14.0698 -1.72711e-06 9.02839C -1.72711e-06 3.95043 4.1071 -1.44094e-15 8.59016 -1.44094e-15C 10.7286 -1.44094e-15 12.4264 0.953132 13.3117 2.01172L 13.4492 2.01172L 13.4492 0.547544L 17.1884 0.547544L 17.1884 0.543488ZM 13.7281 9.02839C 13.7281 5.86075 11.622 3.54484 8.94185 3.54484C 6.22534 3.54484 3.94945 5.86075 3.94945 9.02839C 3.94945 12.1636 6.22534 14.447 8.94185 14.447C 11.622 14.447 13.7281 12.1636 13.7281 9.02839Z"/>
<path id="path3_fill" d="M 3.84031 0L 3.84031 26.3632L 0 26.3632L 0 0L 3.84031 0Z"/>
<path id="path4_fill" d="M 13.3117 11.9608L 16.3678 14.005C 15.3814 15.4691 13.0045 17.9919 8.89738 17.9919C 3.80393 17.9919 -1.48038e-06 14.0415 -1.48038e-06 8.99594C -1.48038e-06 3.64624 3.83626 -9.28317e-08 8.45675 -9.28317e-08C 13.1096 -9.28317e-08 15.3855 3.71519 16.1293 5.72285L 16.5376 6.74493L 4.55178 11.7256C 5.46941 13.5304 6.89638 14.4511 8.89738 14.4511C 10.9024 14.4511 12.293 13.4615 13.3117 11.9608ZM 3.90498 8.7242L 11.9171 5.38621C 11.4765 4.26273 10.1505 3.47995 8.59016 3.47995C 6.58915 3.47995 3.80392 5.25237 3.90498 8.7242Z"/>
<path id="path5_fill" d="M 14.1202 16.6048L 14.1202 12.7882L 26.9387 12.7882C 27.0641 13.4534 27.1287 14.2402 27.1287 15.0919C 27.1287 17.9554 26.3485 21.4962 23.8342 24.0189C 21.3885 26.5741 18.2637 27.9369 14.1242 27.9369C 6.45171 27.9369 5.78274e-09 21.6665 5.78274e-09 13.9685C 5.78274e-09 6.27039 6.45171 -4.83499e-10 14.1242 -4.83499e-10C 18.3688 -4.83499e-10 21.3925 1.67102 23.6644 3.84903L 20.9802 6.54214C 19.3511 5.00901 17.1439 3.81658 14.1202 3.81658C 8.5174 3.81658 4.1354 8.347 4.1354 13.9685C 4.1354 19.5899 8.5174 24.1203 14.1202 24.1203C 17.7543 24.1203 19.8241 22.6562 21.15 21.3258C 22.2253 20.247 22.9327 18.7057 23.2116 16.6007L 14.1202 16.6048Z"/>
</defs>
</svg>
