<svg width="200" height="200" viewBox="0 0 200 200" version="1.1" xmlns="http://www.w3.org/2000/svg" xmlns:xlink="http://www.w3.org/1999/xlink">
<title>McKinseyAndCompany</title>
<desc>Created using Figma</desc>
<g id="Canvas" transform="translate(-415 -3212)">
<g id="McKinseyAndCompany">
<g id="McKinsey_and_Company_Logo_1 (1)">
<g id="layer1">
<g id="path157">
<use xlink:href="#path0_fill" transform="translate(423 3300)" fill="#333333"/>
</g>
</g>
</g>
</g>
</g>
<defs>
<path id="path0_fill" d="M 107.805 7.94209e-08C 103.471 7.94209e-08 100.579 3.35471 100.579 7.96277C 100.579 12.3698 103.223 15.1396 107.43 15.1396C 110.169 15.1396 112.308 13.7977 113.094 12.5129L 112.699 12.0579C 111.837 13.217 109.978 14.0641 108.076 14.0641C 104.676 14.0641 102.641 11.2389 102.641 7.03206C 102.641 2.97828 104.622 0.703206 107.868 0.703206C 110.376 0.703206 111.823 1.97477 112.532 4.46742L 112.969 4.46742L 112.824 0.16546L 112.407 0.16546C 112.255 0.467425 111.996 0.599793 111.616 0.599793C 110.753 0.599793 109.961 7.94209e-08 107.805 7.94209e-08ZM 0.624716 0.351603L 0.624716 0.785936C 1.3852 0.938159 2.49137 1.12926 2.41557 2.79214L 1.95744 11.6236C 1.85582 13.5115 1.31773 14.2031 1.92458e-07 14.3537L 1.92458e-07 14.788L 4.66454 14.788L 4.66454 14.3537C 3.24519 14.1022 2.83954 13.6108 2.91534 11.7477L 3.33182 2.87487L 7.99636 14.6846L 8.57943 14.6846L 13.1399 2.87487L 13.5772 12.3268C 13.6538 13.7886 13.2515 14.2279 12.1611 14.3537L 12.1611 14.788L 17.4087 14.788L 17.4087 14.3537C 16.1152 14.2279 15.6112 13.6281 15.5346 11.8925L 15.0973 2.85419C 15.0473 1.54457 15.6021 0.988625 16.7424 0.889349L 16.7424 0.434333L 13.119 0.434333L 8.82931 11.5408L 4.4563 0.351603L 0.624716 0.351603ZM 26.5921 0.351603L 26.5921 0.785936C 28.1647 0.911685 28.258 1.23682 28.258 4.96381L 28.258 9.94829C 28.258 13.9781 28.0897 14.2279 26.5921 14.3537L 26.5921 14.788L 31.798 14.788L 31.798 14.3537C 30.1488 14.1286 30.1529 14.0095 30.1529 9.67942L 30.1529 8.8728L 30.8401 8.10755C 32.5643 10.223 34.4177 12.5468 36.4209 14.788L 39.8777 14.788L 44.6672 14.788L 44.6672 14.3537C 43.247 14.2544 43.2095 14.28 43.2095 11.1065L 43.2095 5.79111L 39.8152 5.79111L 39.8152 6.22544C 41.2845 6.27673 41.4603 6.35367 41.4603 8.8728L 41.4603 11.0858C 41.4603 14.2514 41.4276 14.2811 39.8777 14.3537C 39.0664 14.2784 38.2542 14.0525 35.6921 11.1065C 34.7042 9.94747 33.0733 7.99752 32.1104 6.76319L 35.2131 3.32989C 36.7341 1.66701 37.5612 0.837228 38.9823 0.785936L 38.9823 0.351603L 34.1095 0.351603L 34.1095 0.785936C 34.7433 0.911685 34.9841 1.14002 34.9841 1.59255C 34.9841 1.89535 34.9224 2.42647 33.9845 3.4333L 30.1529 7.63185L 30.1529 4.92244C 30.1529 1.22192 30.3262 0.98697 31.798 0.785936L 31.798 0.351603L 26.5921 0.351603ZM 42.2516 0.930714C 41.5919 0.930714 41.1063 1.43537 41.1063 2.08893C 41.1063 2.74416 41.5919 3.24716 42.2516 3.24716C 42.9113 3.24716 43.4177 2.74416 43.4177 2.08893C 43.4177 1.43537 42.9113 0.930714 42.2516 0.930714ZM 90.084 1.09617C 88.7163 1.09617 87.2936 1.94416 87.2936 3.80558C 87.2936 4.5121 87.5168 5.15822 87.8975 5.9152C 86.0208 6.49431 85.0238 8.11086 85.0238 9.94829C 85.0238 13.298 87.5893 15.1189 90.4796 15.1189C 92.2796 15.1189 93.6998 14.5522 95.0192 13.4436C 95.8297 14.0244 96.6402 14.5861 97.1224 14.788L 100.246 14.788L 100.246 14.3537C 99.2306 14.2536 97.7022 13.4279 96.0812 12.2441C 96.6635 11.2877 96.8042 9.90445 96.9558 8.8728C 97.0841 7.99173 97.7347 8.01324 98.1636 7.96277L 98.1636 7.5698L 94.0613 7.5698L 94.0613 7.96277C 95.0251 8.08852 95.9563 8.21344 95.9563 9.7001C 95.9563 10.4811 95.833 11.2596 95.4774 11.789C 91.8773 8.99359 88.5638 5.12348 88.5638 3.18511C 88.5638 2.22709 89.1461 1.7787 90.084 1.7787C 91.2509 1.7787 92.3629 2.54147 92.8952 4.05377L 93.2908 4.05377L 93.2492 1.34436L 92.8327 1.34436C 92.8086 1.52058 92.6411 1.63392 92.5412 1.63392C 92.0339 1.63392 91.3284 1.09617 90.084 1.09617ZM 60.5349 5.60496C 58.6591 5.60496 57.5779 6.76484 57.5779 8.14891C 57.5779 11.1719 62.7839 10.5622 62.7839 13.03C 62.7839 13.8606 61.9976 14.3537 60.6807 14.3537C 59.3871 14.3537 58.286 13.6703 57.932 12.0579L 57.3905 12.0579C 57.3905 12.714 57.493 13.9235 57.6196 14.1262C 57.9753 14.7053 59.4263 15.0155 60.6182 15.0155C 62.7731 15.0155 64.0958 13.7713 64.0958 12.2854C 64.0958 8.9605 58.9315 9.48418 58.9315 7.3423C 58.9315 6.58697 59.6154 6.20476 60.4516 6.20476C 62.15 6.20476 62.903 7.76422 63.0546 8.29369L 63.4503 8.29369C 63.4503 6.98407 63.3028 6.16008 63.2004 6.05998C 63.0988 5.95905 61.8027 5.60496 60.5349 5.60496ZM 70.0723 5.60496C 67.4343 5.60496 65.6576 7.69224 65.6576 10.5895C 65.6576 12.8546 66.8246 15.0362 69.9681 15.0362C 71.26 15.0362 72.8135 14.5183 73.6748 13.5884L 73.4665 13.1541C 72.6303 13.6579 71.7107 13.8987 70.8219 13.8987C 68.3114 13.8987 67.2685 11.6575 67.3443 9.61737L 73.6748 9.61737C 73.7764 7.55243 72.6827 5.60496 70.0723 5.60496ZM 119.029 5.60496C 116.188 5.60496 114.177 7.65502 114.177 10.2999C 114.177 12.0629 114.884 13.5272 116.176 14.333C 116.938 14.8103 117.923 15.0155 118.987 15.0155C 121.802 15.0155 123.819 12.9944 123.819 10.2999C 123.819 8.56257 123.113 7.11313 121.82 6.30817C 121.059 5.82916 120.094 5.60496 119.029 5.60496ZM 22.698 5.66701C 19.9842 5.66701 17.9502 8.08521 17.9502 10.7549C 17.9502 12.8703 19.1421 15.0362 22.2607 15.0362C 23.5526 15.0362 25.1061 14.5191 25.9673 13.5884L 25.7591 13.1541C 24.9228 13.6571 24.0016 13.8987 23.1145 13.8987C 20.604 13.8987 19.6577 11.7923 19.6577 9.57601C 19.6577 8.54436 19.9084 7.79648 20.3657 7.3423C 20.7955 6.91375 21.4036 6.76319 22.0108 6.76319C 22.8979 6.76319 23.9199 7.10817 24.6554 8.06618L 24.822 8.0455C 25.1011 7.6939 25.3784 6.98325 25.4051 6.45295C 24.7712 5.94995 23.8133 5.66701 22.698 5.66701ZM 52.0805 5.66701C 50.9135 5.66701 49.6865 6.21882 48.7486 7.40434L 48.7486 5.79111L 45.3543 5.79111L 45.3543 6.22544C 46.8245 6.2759 46.9994 6.35367 46.9994 8.8728L 46.9994 11.0858C 46.9994 14.2834 46.9928 14.2784 45.396 14.3537L 45.396 14.788L 50.2271 14.788L 50.2271 14.3537C 48.8053 14.2544 48.7486 14.2792 48.7486 11.1065L 48.7486 8.66598C 48.7486 7.83371 49.8989 6.80455 51.2683 6.80455C 52.3828 6.80455 53.2674 7.28604 53.2674 9.45191L 53.2674 11.2513C 53.2674 14.2494 53.1658 14.2784 51.8722 14.3537L 51.8722 14.788L 56.62 14.788L 56.62 14.3537C 55.0233 14.2784 55.0166 14.2494 55.0166 11.2513L 55.0166 9.24509C 55.0166 6.52492 53.5256 5.66701 52.0805 5.66701ZM 131.232 5.66701C 129.989 5.66701 128.776 6.44633 128.067 7.40434L 128.067 5.79111L 124.672 5.79111L 124.672 6.22544C 126.145 6.2759 126.317 6.35367 126.317 8.8728L 126.317 11.4374C 126.317 14.3346 126.276 14.3297 124.756 14.3537L 124.756 14.788L 129.545 14.788L 129.545 14.3537C 128.202 14.2279 128.067 14.2254 128.067 11.3547L 128.067 8.74871C 128.067 7.81717 129.257 6.80455 130.524 6.80455C 131.893 6.80455 132.481 7.56153 132.481 9.3485L 132.481 11.1686C 132.481 14.1411 132.416 14.2784 131.149 14.3537L 131.149 14.788L 135.647 14.788L 135.647 14.3537C 134.151 14.2279 134.189 14.0972 134.189 11.2513L 134.189 8.72802C 134.189 7.8213 135.344 6.80455 136.688 6.80455C 137.83 6.80455 138.562 7.48542 138.562 9.3485L 138.562 11.4168C 138.562 14.1369 138.548 14.2544 137.229 14.3537L 137.229 14.788L 141.998 14.788L 141.998 14.3537C 140.35 14.2784 140.415 14.0567 140.415 11.4374L 140.415 9.10031C 140.415 6.606 139.056 5.66701 137.458 5.66701C 136.015 5.66701 134.838 6.47446 134.001 7.63185C 133.646 6.39834 132.754 5.66701 131.232 5.66701ZM 148.578 5.66701C 147.26 5.66701 146.189 6.27921 145.455 7.13547L 145.455 5.79111L 142.144 5.79111L 142.144 6.22544C 143.538 6.2759 143.705 6.36029 143.705 9.30714L 143.705 15.4498C 143.705 18.649 143.778 18.8906 142.206 18.9659L 142.206 19.4002L 147.058 19.4002L 147.058 18.9659C 145.335 18.9171 145.455 18.6341 145.455 15.2844L 145.455 14.0641C 146.139 14.7442 147.22 15.0155 148.183 15.0155C 150.92 15.0155 152.639 12.9787 152.639 10.2585C 152.639 7.64012 150.935 5.66701 148.578 5.66701ZM 157.428 5.66701C 156.439 5.66701 154.987 6.0211 154.201 6.70114C 154.251 7.12885 154.635 7.95946 154.888 8.21096L 155.117 8.1696C 155.522 7.18759 156.214 6.47363 157.303 6.47363C 158.496 6.47363 158.99 7.31169 158.99 8.29369L 158.99 9.32782C 158.99 10.0079 155.963 10.1353 154.721 11.1686C 154.29 11.5458 153.972 12.024 153.972 12.6784C 153.972 14.0889 154.976 15.0155 156.47 15.0155C 157.408 15.0155 158.216 14.7069 159.053 13.7746C 159.179 14.429 159.727 14.788 160.614 14.788L 162.759 14.788L 167.445 14.788L 167.445 14.3537C 166.024 14.2544 165.966 14.2792 165.966 11.1065L 165.966 8.66598C 165.966 7.83371 167.118 6.80455 168.486 6.80455C 169.602 6.80455 170.485 7.28604 170.485 9.45191L 170.485 11.2513C 170.485 14.2494 170.382 14.2784 169.09 14.3537L 169.09 14.788L 173.838 14.788L 173.838 14.3537C 172.239 14.2784 172.234 14.2494 172.234 11.2513L 172.234 9.24509C 172.234 6.52492 170.745 5.66701 169.298 5.66701C 168.133 5.66701 166.904 6.21882 165.966 7.40434L 165.966 5.79111L 162.572 5.79111L 162.572 6.22544C 164.042 6.2759 164.217 6.35367 164.217 8.8728L 164.217 11.0858C 164.217 14.2834 164.189 14.2784 162.593 14.3537L 162.218 14.3537C 160.95 14.3537 160.802 13.9284 160.802 12.1406L 160.802 9.12099C 160.802 8.54271 160.739 8.0182 160.614 7.59049C 160.183 6.17994 159.025 5.66701 157.428 5.66701ZM 74.1121 5.9152L 74.1121 6.34953C 75.1508 6.4 75.2374 6.5456 76.6318 9.61737L 79.0057 14.8294C 78.1944 16.8943 76.9241 18.0145 74.362 18.5936C 74.4902 19.0221 74.9642 19.7725 75.2158 20C 78.5892 18.6399 79.2514 16.4211 80.4425 13.0714L 82.2334 7.98345C 82.6382 6.82441 83.2879 6.34953 83.9201 6.34953L 83.9201 5.9152L 80.6508 5.9152L 80.6508 6.34953C 81.4379 6.4 81.8511 6.8335 81.5462 7.71458L 79.797 12.8232L 78.1103 8.8728C 77.6555 7.79069 77.4855 7.36794 77.4855 6.99069C 77.4855 6.63744 77.6813 6.42647 78.3393 6.34953L 78.3393 5.9152L 74.1121 5.9152ZM 173.192 5.9152L 173.192 6.34953C 174.231 6.4 174.338 6.5456 175.732 9.61737L 178.086 14.8294C 177.273 16.8943 176.003 18.0145 173.442 18.5936C 173.569 19.0221 174.043 19.7725 174.296 20C 177.669 18.6399 178.331 16.4211 179.522 13.0714L 181.334 7.98345C 181.739 6.82441 182.367 6.34953 183 6.34953L 183 5.9152L 179.731 5.9152L 179.731 6.34953C 180.518 6.4 180.952 6.8335 180.647 7.71458L 178.898 12.8232L 177.19 8.8728C 176.734 7.79069 176.565 7.36794 176.565 6.99069C 176.565 6.63744 176.761 6.42647 177.419 6.34953L 177.419 5.9152L 173.192 5.9152ZM 69.7183 6.34953C 71.1368 6.34953 72.0047 7.2728 72.0297 8.93485L 67.3652 8.93485C 67.5168 7.2728 68.2731 6.34953 69.7183 6.34953ZM 118.779 6.34953C 120.402 6.34953 122.007 7.909 122.007 10.879C 122.007 12.9696 121.077 14.2503 119.175 14.2503C 117.527 14.2503 115.989 12.7479 115.989 9.7001C 115.989 7.53423 117.028 6.34953 118.779 6.34953ZM 88.2307 6.57704C 89.4992 8.8182 91.8673 11.1967 94.3529 13.0093C 93.5907 13.5892 92.3096 13.7539 91.2709 13.7539C 88.608 13.7539 86.5023 11.8842 86.5023 9.38987C 86.5023 7.82875 87.1903 6.85419 88.2307 6.57704ZM 147.766 6.80455C 149.64 6.80455 150.806 8.19442 150.806 10.486C 150.806 12.8281 149.824 14.333 147.974 14.333C 146.782 14.333 145.455 13.6629 145.455 12.7818L 145.455 8.31437C 145.455 7.55905 146.549 6.80455 147.766 6.80455ZM 158.99 10.1758L 158.99 12.6577C 158.99 13.413 157.99 14.0228 157.178 14.0228C 156.418 14.0228 155.783 13.5462 155.783 12.5129C 155.783 10.6755 157.698 10.8807 158.99 10.1758Z"/>
</defs>
</svg>
