<svg width="200" height="200" viewBox="0 0 200 200" version="1.1" xmlns="http://www.w3.org/2000/svg" xmlns:xlink="http://www.w3.org/1999/xlink">
<title>Tencent</title>
<desc>Created using Figma</desc>
<g id="Canvas" transform="translate(-415 -3626)">
<g id="Tencent">
<g id="Tencent">
<g id="path22339">
<use xlink:href="#path0_fill" transform="translate(440.286 3716)" fill="#333333"/>
</g>
</g>
</g>
</g>
<defs>
<path id="path0_fill" d="M 0.67431 0L 0 2.63077L 6.2486 2.63077L 3.95595 11.8047L 2.27018 18.5728L 6.36099 18.5728L 8.04676 11.8047L 10.3394 2.63077L 16.5655 2.63077L 17.2174 0L 0.67431 0ZM 125.556 0.202367C 125.224 1.56947 124.918 2.63617 124.612 3.55266L 123.084 3.55266L 123.578 3.23787C 124.431 2.68473 124.851 2.40052 124.86 2.36095C 124.405 1.33292 124.02 0.62329 123.668 0.269822C 123.658 0.205929 123.009 0.602604 121.758 1.41657L 121.331 1.68639C 121.34 1.70618 121.391 1.78263 121.488 1.91124C 121.929 2.48417 122.301 3.02381 122.59 3.55266L 121.331 3.55266L 120.926 5.44142L 123.758 5.44142L 123.556 5.82367L 123.354 6.20592L 120.297 6.20592L 119.915 8.09467L 122.028 8.09467C 121.126 9.19555 120.053 10.0797 118.813 10.7479L 120.791 1.30414L 115.329 1.30414L 113.284 11.0627C 113.229 11.3182 113.167 11.561 113.104 11.8047C 112.629 13.6926 111.921 15.3862 110.969 16.8864C 111.546 17.3964 112.016 17.9432 112.407 18.5278C 113.552 16.8945 114.451 14.8034 115.127 12.232L 116.318 12.232L 115.644 15.4249C 115.591 15.862 115.147 16.0589 114.34 15.987C 114.509 16.7686 114.581 17.5511 114.52 18.3704C 116.467 18.3578 117.449 17.9189 117.487 17.0213L 118.589 11.8047L 118.656 11.445C 118.777 11.5664 118.891 11.686 118.993 11.8047C 119.256 12.1141 119.46 12.4181 119.6 12.7266C 119.899 12.5791 120.253 12.3525 120.656 12.0071L 119.937 14.3456L 126.478 14.3456L 126.366 14.9527C 126.107 16.2154 125.743 16.8288 125.287 16.7515L 125.646 14.9527L 118.634 14.9527L 118.229 16.8189L 123.938 16.8189C 124.264 17.5232 124.404 18.2445 124.343 19C 126.164 18.9406 127.28 18.66 127.714 18.1456C 127.85 17.9954 127.993 17.7345 128.141 17.2911C 128.439 16.3998 128.788 15.0966 129.22 13.3787L 129.467 12.3893L 127.04 12.3893L 127.175 11.8047L 127.355 10.9053C 127.786 11.2831 128.169 11.5772 128.501 11.8047C 128.746 11.9729 128.963 12.1015 129.153 12.187C 129.257 12.0566 129.364 11.928 129.467 11.8047C 130.093 11.0447 130.687 10.4116 131.243 9.89349C 129.778 9.47617 128.704 8.87716 128.029 8.09467L 131.243 8.09467L 131.625 6.20592L 125.849 6.20592C 126.003 5.97927 126.147 5.73553 126.253 5.44142L 131.018 5.44142L 131.4 3.55266L 129.692 3.55266C 130.438 2.82324 131.095 2.22334 131.693 1.75385L 129.692 0.51716C 129.051 1.33562 128.36 2.1325 127.602 2.90059L 128.816 3.6426L 127.085 3.6426L 127.332 2.85562L 127.647 2.06864C 127.909 1.40578 128.125 0.902107 128.276 0.584615C 128.291 0.454201 128.205 0.388544 127.939 0.359763C 127.435 0.280615 126.643 0.22845 125.556 0.202367ZM 137.649 0.359763C 137.04 0.56213 136.092 0.931787 134.772 1.48402C 135.187 2.66854 135.487 3.85037 135.694 5.03669C 136.16 4.8595 137.173 4.51143 138.706 3.9574C 138.066 1.65491 137.7 0.450604 137.649 0.359763ZM 139.874 1.3716L 139.402 3.55266L 141.2 3.55266L 140.346 7.62249L 138.099 7.62249L 137.627 9.80355L 139.897 9.80355L 139.47 11.8047L 138.099 18.303L 140.616 18.303L 141.965 11.8047L 142.392 9.80355L 144.19 9.80355L 143.83 11.445C 143.804 11.5664 143.785 11.6851 143.763 11.8047C 143.303 14.216 143.539 16.1021 144.46 17.4485C 145.021 18.2463 145.698 18.5836 146.505 18.4604C 147.341 18.5035 148.178 17.1535 149 14.413C 148.252 14.073 147.563 13.7735 146.955 13.5136C 146.546 14.7692 146.293 15.1766 146.19 14.7278C 146.029 14.0874 146.063 13.1134 146.28 11.8047C 146.35 11.382 146.44 10.9278 146.55 10.4331L 148.461 1.3716L 139.874 1.3716L 139.874 1.3716ZM 102.54 1.59645L 101.686 5.05917L 98.4043 5.05917L 97.7749 7.62249L 109.778 7.62249L 102.54 1.59645ZM 117.015 3.23787L 118.206 3.23787L 117.645 5.91361L 116.476 5.91361L 117.015 3.23787ZM 143.695 3.55266L 145.583 3.55266L 144.729 7.62249L 142.841 7.62249L 143.695 3.55266ZM 21.9151 4.29467C 19.421 4.29467 17.2578 4.94675 15.4192 6.25089C 13.5905 7.57392 12.4028 9.30708 11.8679 11.445C 11.8364 11.57 11.8031 11.6824 11.7779 11.8047C 11.3671 13.7897 11.7312 15.4087 12.8793 16.6391C 14.103 17.9342 15.991 18.5728 18.5435 18.5728C 22.8942 18.5728 26.2288 15.9177 26.5678 15.6272L 24.6797 15.2C 24.2356 15.3025 21.8171 16.0032 19.3976 15.7846C 16.3453 15.5103 15.653 13.2744 15.8238 12.1645L 28.0738 12.1645L 28.1861 11.8047L 28.2761 11.4225C 28.8317 9.19375 28.5377 7.4408 27.3995 6.18343C 26.2522 4.91527 24.4343 4.29467 21.9151 4.29467ZM 58.2154 4.29467C 55.591 4.29467 53.2174 4.97553 51.0677 6.36331C 48.9144 7.752 47.5937 9.47257 47.0893 11.4899C 47.0615 11.6006 47.021 11.6959 46.9994 11.8047C 46.6227 13.6773 47.1217 15.2612 48.4829 16.5491C 49.9268 17.9 51.9704 18.5728 54.6191 18.5728C 56.2239 18.5728 57.9079 18.24 59.6764 17.5834L 60.7104 13.4686C 59.5344 14.3743 58.5481 14.976 57.7659 15.2899C 56.9585 15.6137 56.0855 15.7846 55.1361 15.7846C 53.6481 15.7846 52.5224 15.3853 51.7645 14.5704C 51.0938 13.8365 50.8537 12.9047 51.0452 11.8047C 51.0668 11.6833 51.1037 11.57 51.1352 11.445C 51.4453 10.2056 52.1916 9.16407 53.3829 8.34201C 54.5714 7.51995 55.9174 7.10533 57.4062 7.10533C 58.3548 7.10533 59.1226 7.26632 59.7438 7.6C 60.3768 7.92289 61.0403 8.52909 61.7218 9.39882L 62.7558 5.23905C 61.4152 4.60137 59.903 4.29467 58.2154 4.29467ZM 73.0277 4.29467C 70.5328 4.29467 68.3696 4.94675 66.5319 6.25089C 64.7023 7.57392 63.5146 9.30708 62.9805 11.445C 62.9491 11.57 62.9167 11.6824 62.8906 11.8047C 62.4788 13.7897 62.8421 15.4087 63.992 16.6391C 65.2138 17.9342 67.1046 18.5728 69.6562 18.5728C 74.005 18.5728 77.3424 15.9177 77.6805 15.6272L 75.7924 15.2C 75.3483 15.3025 72.9297 16.0032 70.5103 15.7846C 67.4588 15.5103 66.7639 13.2744 66.9365 12.1645L 79.1864 12.1645L 79.2988 11.8047L 79.3887 11.4225C 79.9462 9.19375 79.671 7.4408 78.5346 6.18343C 77.3874 4.91527 75.5479 4.29467 73.0277 4.29467ZM 41.1554 4.67692C 39.4219 4.67692 37.7272 5.21297 36.0756 6.29586L 32.4118 5.05917L 30.726 11.8047L 29.0403 18.5728L 33.0187 18.5728L 34.637 12.0521C 34.6578 11.9684 34.6838 11.8803 34.7044 11.8047C 35.118 10.2506 35.6727 9.14249 36.3453 8.49941C 37.0663 7.81586 38.0679 7.48757 39.3797 7.48757C 40.5862 7.48757 41.3675 7.73311 41.6948 8.25207C 42.0355 8.75934 42.0283 9.68573 41.6948 11.0178L 41.515 11.8047L 39.8067 18.5728L 43.7851 18.5728L 45.4709 11.8047L 45.853 10.2757C 46.3304 8.36989 46.1992 7.00549 45.4484 6.16095C 44.5826 5.1716 43.1477 4.67692 41.1553 4.67692L 41.1554 4.67692ZM 91.9309 4.67692C 90.1966 4.67692 88.5045 5.21297 86.8511 6.29586L 83.1873 5.05917L 81.5016 11.8047L 79.8158 18.5728L 83.7942 18.5728L 85.4126 12.0521C 85.4341 11.9684 85.4585 11.8803 85.48 11.8047C 85.8953 10.2506 86.4465 9.14249 87.1208 8.49941C 87.8427 7.81586 88.8416 7.48757 90.1552 7.48757C 91.3608 7.48757 92.1421 7.73311 92.4703 8.25207C 92.8102 8.75934 92.8039 9.68573 92.4703 11.0178L 92.268 11.8047L 90.5822 18.5728L 94.5607 18.5728L 96.2464 11.8047L 96.6285 10.2757C 97.106 8.36989 96.9738 7.00549 96.224 6.16095C 95.359 5.1716 93.9214 4.67692 91.9308 4.67692L 91.9309 4.67692ZM 132.322 6.09349L 131.85 8.29704L 134.075 8.29704L 133.334 11.8047L 132.861 14.1432C 132.759 14.6325 132.368 15.1424 131.693 15.6947C 131.494 15.8584 131.372 15.9636 131.356 16.0095C 131.603 16.7839 132.043 17.5394 132.659 18.2355C 132.707 18.2481 132.97 18.016 133.423 17.5609C 134.1 16.8441 135.815 15.2639 138.593 12.8166C 138.584 12.7851 138.431 12.4568 138.144 11.8497L 138.121 11.8047L 137.717 10.9053L 137.267 11.2876C 137.051 11.4773 136.843 11.6518 136.66 11.8047C 136.175 12.2257 135.806 12.5342 135.559 12.7266L 135.761 11.8047L 136.952 6.09349L 132.322 6.09349L 132.322 6.09349ZM 21.2857 7.10533C 23.395 7.10533 24.5224 7.93458 24.6573 9.60118L 16.7229 9.60118C 16.9477 9.21264 17.2084 8.87266 17.5321 8.56686C 17.853 8.26286 18.2154 7.99214 18.6109 7.77988C 19.0173 7.55683 19.4426 7.39673 19.8921 7.28521C 20.3435 7.16469 20.8056 7.10533 21.2857 7.10533ZM 72.3984 7.10533C 74.5076 7.10533 75.6369 7.93458 75.7699 9.60118L 67.8356 9.60118C 68.0621 9.21264 68.3238 8.87266 68.6447 8.56686C 68.9675 8.26286 69.3325 7.99214 69.7236 7.77988C 70.1336 7.55683 70.5553 7.39673 71.0048 7.28521C 71.4579 7.16469 71.9174 7.10533 72.3984 7.10533ZM 116.071 7.77988L 117.24 7.77988L 116.723 10.2757L 115.554 10.2757L 116.071 7.77988ZM 124.68 8.09467L 125.377 8.09467C 125.469 8.3618 125.598 8.62802 125.759 8.88166L 124.051 8.88166L 124.365 8.47692L 124.68 8.09467ZM 100.899 8.2071L 100 11.8047L 98.2919 18.5728L 102.248 18.5728L 103.956 11.8047L 104.855 8.2071L 100.899 8.2071ZM 122.252 10.658L 125.062 10.658L 124.837 11.8047L 124.68 12.4568L 122.747 12.4568C 122.819 12.2158 122.883 11.9999 122.949 11.8047C 123.024 11.5799 123.084 11.3883 123.151 11.2201C 123.057 11.1662 122.999 11.1302 122.949 11.1302L 121.78 11.1302L 122.252 10.658Z"/>
</defs>
</svg>
