<svg width="200" height="200" viewBox="0 0 200 200" version="1.1" xmlns="http://www.w3.org/2000/svg" xmlns:xlink="http://www.w3.org/1999/xlink">
<title>Twitter</title>
<desc>Created using Figma</desc>
<g id="Canvas" transform="translate(-415 -2986)">
<g id="Twitter">
<g id="Twitter">
<g id="Group">
<g id="Vector">
<use xlink:href="#path0_fill" transform="translate(486.286 3063)" fill="#333333"/>
</g>
</g>
</g>
</g>
</g>
<defs>
<path id="path0_fill" d="M 17.9258 46C 39.4363 46 51.1996 28.3043 51.1996 12.9592C 51.1996 12.4566 51.1893 11.9563 51.1666 11.4582C 53.45 9.81903 55.4346 7.77349 57 5.44491C 54.9046 6.36977 52.6497 6.99237 50.2842 7.27311C 52.6987 5.83545 54.5523 3.56125 55.4268 0.850141C 53.1673 2.18026 50.6651 3.147 48.0008 3.66894C 45.8668 1.41177 42.8286 -2.41126e-06 39.4645 -2.41126e-06C 33.0064 -2.41126e-06 27.7694 5.20056 27.7694 11.611C 27.7694 12.5223 27.8719 13.4086 28.0726 14.2588C 18.3531 13.7732 9.73453 9.1523 3.96652 2.12592C 2.96219 3.84204 2.38307 5.83551 2.38307 7.96257C 2.38307 11.9914 4.44767 15.5481 7.58721 17.6288C 5.66856 17.57 3.8662 17.047 2.29088 16.1764C 2.28915 16.2252 2.28915 16.2727 2.28915 16.3248C 2.28915 21.9487 6.32022 26.6442 11.6713 27.7082C 10.6886 27.9742 9.65467 28.1169 8.58756 28.1169C 7.83518 28.1169 7.10214 28.0433 6.38965 27.9074C 7.87847 32.5215 12.1957 35.8791 17.3142 35.973C 13.3116 39.0882 8.26948 40.9437 2.78952 40.9437C 1.84674 40.9437 0.915368 40.8904 -4.89389e-06 40.7829C 5.17564 44.0771 11.3212 45.9993 17.9264 45.9993"/>
</defs>
</svg>
