<svg width="1163" height="200" viewBox="0 0 1163 200" version="1.1" xmlns="http://www.w3.org/2000/svg" xmlns:xlink="http://www.w3.org/1999/xlink">
<title>Velocity Logo + Name</title>
<desc>Created using Figma</desc>
<g id="Canvas" transform="translate(-310 -2473)">
<clipPath id="clip-0" clip-rule="evenodd">
<path d="M 310 2473L 1473 2473L 1473 2673L 310 2673L 310 2473Z" fill="#FFFFFF"/>
</clipPath>
<g id="Velocity Logo + Name" clip-path="url(#clip-0)">
<clipPath id="clip-1" clip-rule="evenodd">
<path d="M 310 2473L 510 2473L 510 2673L 310 2673L 310 2473Z" fill="#FFFFFF"/>
</clipPath>
<g id="Velocity Logo Square" clip-path="url(#clip-1)">
<g id="Group">
<g id="Front">
<use xlink:href="#path0_fill" transform="translate(399.524 2522.5)"/>
</g>
<g id="Back">
<use xlink:href="#path1_fill" transform="translate(360 2504)"/>
</g>
</g>
</g>
<g id="Velocity Program">
<use xlink:href="#path2_fill" transform="translate(510 2502)"/>
</g>
</g>
</g>
<defs>
<path id="path0_fill" d="M 0 59.6547L 0 120L 60.4762 60L 60.4762 0L 0 59.6547Z"/>
<path id="path1_fill" d="M 0 60.5L 0 0L 56.5 56L 36 77L 36 96L 0 60.5Z"/>
<path id="path2_fill" d="M 39.082 109.123L 31.0522 109.123L 0.280762 25.7368L 16.3403 25.7368L 35.376 81.3276L 55.4785 25.7368L 71.2012 25.7368L 39.082 109.123ZM 132.8 82.2261L 89.8438 82.2261C 90.1058 87.0177 91.7529 90.7425 94.7852 93.4004C 97.8174 96.0583 101.898 97.3872 107.026 97.3872C 113.428 97.3872 118.294 95.7214 121.626 92.3896L 127.073 103.115C 122.131 107.12 114.757 109.123 104.949 109.123C 95.7772 109.123 88.5148 106.446 83.1616 101.093C 77.8459 95.7026 75.188 88.1969 75.188 78.5762C 75.188 69.1051 78.1079 61.431 83.9478 55.5537C 89.825 49.6764 96.8628 46.7378 105.061 46.7378C 113.783 46.7378 120.784 49.3395 126.062 54.543C 131.34 59.7464 133.979 66.3724 133.979 74.4209C 133.979 76.1429 133.586 78.7446 132.8 82.2261ZM 90.3491 71.6694L 119.885 71.6694C 118.912 62.8722 114.045 58.4736 105.286 58.4736C 97.2746 58.4736 92.2957 62.8722 90.3491 71.6694ZM 147.681 25.4561L 161.719 22.0869L 161.719 89.6943C 161.719 97.1064 163.927 101.524 168.345 102.946C 166.174 107.064 162.467 109.123 157.227 109.123C 150.863 109.123 147.681 104.706 147.681 95.8711L 147.681 25.4561ZM 175.251 77.79C 175.251 68.6185 177.891 61.1502 183.169 55.3853C 188.485 49.6203 195.485 46.7378 204.17 46.7378C 213.304 46.7378 220.398 49.508 225.452 55.0483C 230.505 60.5887 233.032 68.1693 233.032 77.79C 233.032 87.3734 230.449 94.9914 225.283 100.644C 220.155 106.297 213.117 109.123 204.17 109.123C 195.036 109.123 187.923 106.278 182.832 100.588C 177.778 94.8604 175.251 87.2611 175.251 77.79ZM 189.851 77.79C 189.851 91.042 194.624 97.668 204.17 97.668C 208.55 97.668 212.013 95.946 214.558 92.502C 217.141 89.0579 218.433 84.154 218.433 77.79C 218.433 64.7253 213.678 58.1929 204.17 58.1929C 199.79 58.1929 196.309 59.9149 193.726 63.3589C 191.143 66.8029 189.851 71.6133 189.851 77.79ZM 291.487 52.6338L 285.479 63.1343C 282.184 60.0272 277.767 58.4736 272.227 58.4736C 266.911 58.4736 262.699 60.2518 259.592 63.8081C 256.523 67.327 254.988 72.2122 254.988 78.4639C 254.988 91.0794 260.996 97.3872 273.013 97.3872C 278.216 97.3872 282.802 95.6652 286.77 92.2212L 291.936 103.283C 287.856 105.829 284.281 107.438 281.211 108.112C 278.179 108.786 274.585 109.123 270.43 109.123C 261.146 109.123 253.809 106.428 248.418 101.037C 243.065 95.609 240.388 88.0846 240.388 78.4639C 240.388 68.9928 243.327 61.3374 249.204 55.4976C 255.081 49.6577 263.092 46.7378 273.237 46.7378C 280.238 46.7378 286.321 48.7031 291.487 52.6338ZM 314.172 24.5576C 316.418 24.5576 318.328 25.3625 319.9 26.9722C 321.51 28.5444 322.314 30.4536 322.314 32.6997C 322.314 34.9458 321.51 36.8737 319.9 38.4834C 318.328 40.0557 316.418 40.8418 314.172 40.8418C 311.926 40.8418 309.998 40.0557 308.389 38.4834C 306.816 36.8737 306.03 34.9458 306.03 32.6997C 306.03 30.4536 306.816 28.5444 308.389 26.9722C 309.998 25.3625 311.926 24.5576 314.172 24.5576ZM 306.929 108L 306.929 59.3721L 299.236 59.3721L 299.236 47.8608L 321.135 47.8608L 321.135 108L 306.929 108ZM 339.666 59.1475L 332.703 59.1475L 332.703 47.8608L 339.666 47.8608L 339.666 35.6196L 353.704 30.4536L 353.704 47.8608L 370.212 47.8608L 370.212 59.1475L 353.704 59.1475L 353.704 85.4829C 353.704 89.7879 354.377 92.8389 355.725 94.6357C 357.073 96.3952 359.431 97.2749 362.8 97.2749C 366.169 97.2749 369.314 96.3577 372.234 94.5234L 372.234 107.438C 368.977 108.562 364.335 109.123 358.308 109.123C 352.319 109.123 347.714 107.438 344.495 104.069C 341.275 100.663 339.666 95.8337 339.666 89.582L 339.666 59.1475ZM 409.744 117.658C 408.246 121.664 405.027 124.977 400.085 127.597C 395.181 130.255 389.454 131.584 382.903 131.584L 382.903 119.174C 393.722 119.174 399.131 116.46 399.131 111.032C 399.131 107.438 397.633 101.936 394.639 94.5234L 375.828 47.8608L 390.371 47.8608L 406.768 89.4136L 421.536 47.8608L 436.079 47.8608L 409.744 117.658ZM 494.702 77.7339L 494.702 108L 480.103 108L 480.103 25.793C 489.836 25.3812 495.526 25.1753 497.173 25.1753C 510.163 25.1753 519.653 27.1781 525.642 31.1836C 531.669 35.1517 534.683 41.3659 534.683 49.8262C 534.683 68.6934 523.564 78.127 501.328 78.127C 499.681 78.127 497.472 77.9959 494.702 77.7339ZM 494.702 38.4272L 494.702 64.7627C 497.173 65.0247 499.119 65.1558 500.542 65.1558C 507.205 65.1558 512.072 64.0514 515.142 61.8428C 518.211 59.5967 519.746 55.9655 519.746 50.9492C 519.746 42.4141 512.877 38.1465 499.138 38.1465C 497.603 38.1465 496.125 38.2401 494.702 38.4272ZM 581.514 60.9443C 579.006 59.2972 576.254 58.4736 573.259 58.4736C 570.002 58.4736 567.101 59.9523 564.556 62.9097C 562.048 65.867 560.793 69.4795 560.793 73.7471L 560.793 108L 546.755 108L 546.755 47.8608L 560.793 47.8608L 560.793 53.3638C 564.724 48.9465 569.946 46.7378 576.46 46.7378C 581.252 46.7378 584.92 47.4678 587.466 48.9277L 581.514 60.9443ZM 592.014 77.79C 592.014 68.6185 594.653 61.1502 599.932 55.3853C 605.247 49.6203 612.248 46.7378 620.933 46.7378C 630.067 46.7378 637.161 49.508 642.214 55.0483C 647.268 60.5887 649.795 68.1693 649.795 77.79C 649.795 87.3734 647.212 94.9914 642.046 100.644C 636.917 106.297 629.88 109.123 620.933 109.123C 611.799 109.123 604.686 106.278 599.595 100.588C 594.541 94.8604 592.014 87.2611 592.014 77.79ZM 606.614 77.79C 606.614 91.042 611.387 97.668 620.933 97.668C 625.312 97.668 628.775 95.946 631.321 92.502C 633.904 89.0579 635.195 84.154 635.195 77.79C 635.195 64.7253 630.441 58.1929 620.933 58.1929C 616.553 58.1929 613.071 59.9149 610.488 63.3589C 607.905 66.8029 606.614 71.6133 606.614 77.79ZM 656.589 123.442L 665.461 112.492C 670.365 116.984 675.831 119.23 681.858 119.23C 685.901 119.23 689.233 118.632 691.853 117.434C 694.473 116.236 695.784 114.589 695.784 112.492C 695.784 108.936 692.882 107.158 687.08 107.158C 685.508 107.158 683.168 107.345 680.061 107.719C 676.954 108.094 674.614 108.281 673.042 108.281C 663.384 108.281 658.555 104.818 658.555 97.8926C 658.555 95.9085 659.36 93.9619 660.969 92.0527C 662.579 90.1436 664.451 88.7397 666.584 87.8413C 659.734 83.3866 656.309 77.0788 656.309 68.918C 656.309 62.4792 658.667 57.1634 663.384 52.9707C 668.101 48.7406 673.903 46.6255 680.791 46.6255C 686.182 46.6255 690.693 47.6362 694.324 49.6577L 699.827 43.2563L 709.541 52.0723L 702.859 56.9575C 705.18 60.4764 706.34 64.6317 706.34 69.4233C 706.34 76.2739 704.244 81.7581 700.051 85.876C 695.896 89.9564 690.636 91.9966 684.272 91.9966C 683.262 91.9966 681.914 91.903 680.229 91.7158L 677.927 91.3789C 677.665 91.3789 676.654 91.7907 674.895 92.6143C 673.173 93.4004 672.312 94.224 672.312 95.085C 672.312 96.5824 673.604 97.3311 676.187 97.3311C 677.347 97.3311 679.294 97.0503 682.026 96.4888C 684.759 95.9272 687.099 95.6465 689.045 95.6465C 702.709 95.6465 709.541 101.131 709.541 112.099C 709.541 118.164 706.808 122.918 701.343 126.362C 695.877 129.843 689.289 131.584 681.577 131.584C 672.368 131.584 664.039 128.87 656.589 123.442ZM 670.627 68.9741C 670.627 72.5304 671.601 75.3942 673.547 77.5654C 675.531 79.6992 678.189 80.7661 681.521 80.7661C 684.853 80.7661 687.417 79.7179 689.214 77.6216C 691.011 75.5252 691.909 72.6427 691.909 68.9741C 691.909 65.9419 690.936 63.3776 688.989 61.2812C 687.08 59.1849 684.591 58.1367 681.521 58.1367C 678.302 58.1367 675.681 59.1475 673.66 61.1689C 671.638 63.1904 670.627 65.7922 670.627 68.9741ZM 753.564 60.9443C 751.056 59.2972 748.305 58.4736 745.31 58.4736C 742.053 58.4736 739.152 59.9523 736.606 62.9097C 734.098 65.867 732.844 69.4795 732.844 73.7471L 732.844 108L 718.806 108L 718.806 47.8608L 732.844 47.8608L 732.844 53.3638C 736.775 48.9465 741.997 46.7378 748.511 46.7378C 753.302 46.7378 756.971 47.4678 759.517 48.9277L 753.564 60.9443ZM 801.462 101.992C 800.19 104.088 797.962 105.81 794.78 107.158C 791.636 108.468 788.341 109.123 784.897 109.123C 778.421 109.123 773.33 107.513 769.624 104.294C 765.918 101.037 764.065 96.4326 764.065 90.4805C 764.065 83.5176 766.667 78.0708 771.87 74.1401C 777.111 70.2095 784.542 68.2441 794.163 68.2441C 795.81 68.2441 797.756 68.5249 800.002 69.0864C 800.002 62.0112 795.529 58.4736 786.582 58.4736C 781.304 58.4736 776.886 59.3534 773.33 61.1128L 770.298 50.2192C 775.127 47.8983 780.873 46.7378 787.537 46.7378C 796.708 46.7378 803.428 48.8341 807.695 53.0269C 811.963 57.1821 814.097 65.0809 814.097 76.7231L 814.097 89.582C 814.097 97.5931 815.706 102.628 818.926 104.687C 817.765 106.708 816.474 107.944 815.051 108.393C 813.629 108.88 812 109.123 810.166 109.123C 808.145 109.123 806.329 108.374 804.719 106.877C 803.11 105.38 802.024 103.751 801.462 101.992ZM 800.115 79.6992C 797.719 79.2126 795.922 78.9692 794.724 78.9692C 783.643 78.9692 778.103 82.6004 778.103 89.8628C 778.103 95.2534 781.229 97.9487 787.48 97.9487C 795.903 97.9487 800.115 93.7373 800.115 85.3145L 800.115 79.6992ZM 898.943 108L 898.943 70.3218C 898.943 62.423 895.405 58.4736 888.33 58.4736C 886.234 58.4736 884.212 59.0913 882.266 60.3267C 880.319 61.562 878.953 62.9845 878.167 64.5942L 878.167 108L 864.128 108L 864.128 68.1318C 864.128 65.1745 863.211 62.8348 861.377 61.1128C 859.543 59.3534 856.96 58.4736 853.628 58.4736C 851.868 58.4736 849.941 59.1287 847.844 60.439C 845.785 61.7492 844.288 63.1904 843.352 64.7627L 843.352 108L 829.314 108L 829.314 47.8608L 838.972 47.8608L 841.836 53.1392C 845.729 48.8716 850.764 46.7378 856.941 46.7378C 864.915 46.7378 870.923 48.909 874.966 53.2515C 876.725 51.2674 879.177 49.6951 882.322 48.5347C 885.466 47.3367 888.611 46.7378 891.755 46.7378C 898.456 46.7378 903.66 48.6657 907.366 52.5215C 911.109 56.3398 912.981 61.5994 912.981 68.3003L 912.981 108L 898.943 108Z"/>
</defs>
</svg>
