<svg width="200" height="200" viewBox="0 0 200 200" version="1.1" xmlns="http://www.w3.org/2000/svg" xmlns:xlink="http://www.w3.org/1999/xlink">
<title>QuantumBlack</title>
<desc>Created using Figma</desc>
<g id="Canvas" transform="translate(-415 -2776)">
<g id="QuantumBlack">
<g id="QuantumBlack">
<g id="Layer 4">
<g id="Group">
<g id="Vector">
<use xlink:href="#path0_fill" transform="translate(455.588 2881.82)" fill="#333333"/>
</g>
<g id="Vector">
<use xlink:href="#path1_fill" transform="translate(438.286 2868.58)" fill="#333333"/>
</g>
<g id="Vector">
<use xlink:href="#path2_fill" transform="translate(440.743 2861)" fill="#333333"/>
</g>
</g>
<g id="Group">
<g id="Vector">
<use xlink:href="#path3_fill" transform="translate(492.492 2869.78)" fill="#333333"/>
</g>
<g id="Vector">
<use xlink:href="#path4_fill" transform="translate(503.552 2869.78)" fill="#333333"/>
</g>
<g id="Vector">
<use xlink:href="#path5_fill" transform="translate(554.6 2869.75)" fill="#333333"/>
</g>
<g id="Vector">
<use xlink:href="#path6_fill" transform="translate(483.673 2869.75)" fill="#333333"/>
</g>
<g id="Vector">
<use xlink:href="#path7_fill" transform="translate(473.665 2869.68)" fill="#333333"/>
</g>
<g id="Vector">
<use xlink:href="#path8_fill" transform="translate(582.431 2869.72)" fill="#333333"/>
</g>
<g id="Vector">
<use xlink:href="#path9_fill" transform="translate(572.862 2869.68)" fill="#333333"/>
</g>
<g id="Vector">
<use xlink:href="#path10_fill" transform="translate(562.745 2869.78)" fill="#333333"/>
</g>
<g id="Vector">
<use xlink:href="#path11_fill" transform="translate(513.459 2869.78)" fill="#333333"/>
</g>
<g id="Vector">
<use xlink:href="#path12_fill" transform="translate(544.963 2869.75)" fill="#333333"/>
</g>
<g id="Vector">
<use xlink:href="#path13_fill" transform="translate(522.758 2869.75)" fill="#333333"/>
</g>
<g id="Vector">
<use xlink:href="#path14_fill" transform="translate(532.934 2869.78)" fill="#333333"/>
</g>
</g>
</g>
</g>
</g>
</g>
<defs>
<path id="path0_fill" d="M 6.41948 0.181714C 4.93692 2.26805 2.78048 3.81598 0.287085 4.58994C 0.0849183 4.65724 -0.049858 4.85915 0.0175309 5.06105L 0.421863 6.97913L 0.826196 8.86356C 0.85989 9.09912 1.12945 9.23372 1.33161 9.16642C 5.0717 8.0896 8.27267 5.76771 10.4291 2.63821C 10.5639 2.4363 10.4965 2.1671 10.2943 2.06615L 8.64331 1.09028L 6.95859 0.0807614C 6.79012 -0.0538409 6.55426 -0.0201893 6.41948 0.181714Z"/>
<path id="path1_fill" d="M 15.6005 16.2472C 15.5668 16.0453 15.3647 15.9107 15.1625 15.9107C 14.8256 15.9444 14.4886 15.978 14.1517 15.978C 8.92903 15.978 4.71723 11.7717 4.71723 6.55585C 4.71723 5.14253 5.02047 3.7965 5.59328 2.61873C 5.69436 2.41683 5.62698 2.21493 5.42481 2.08032L 3.70639 1.07081L 2.05536 0.061288C 1.8532 -0.0733144 1.58364 0.0276374 1.48256 0.229541C 0.539111 2.11397 5.14137e-07 4.26761 5.14137e-07 6.5222C 5.14137e-07 14.3291 6.33456 20.6555 14.1517 20.6555C 14.8256 20.6555 15.4658 20.6218 16.106 20.5208C 16.3418 20.4872 16.5103 20.2516 16.4429 20.0161L 16.0386 18.1317L 15.6005 16.2472Z"/>
<path id="path2_fill" d="M 3.57434 8.5809C 3.74282 8.68185 3.97868 8.6482 4.11346 8.47995C 5.32646 6.86472 7.07857 5.61965 9.06654 5.04759C 9.26871 4.98029 9.47088 4.94664 9.67304 4.91299C 9.87521 4.87934 10.0774 4.84569 10.2795 4.81204C 10.7176 4.74473 11.1893 4.71108 11.661 4.71108C 16.8837 4.71108 21.0955 8.91741 21.0955 14.1332C 21.0955 15.5466 20.7922 16.8926 20.2194 18.0704C 20.1183 18.2723 20.1857 18.4742 20.3879 18.6088L 22.1063 19.6183L 23.7573 20.5942C 23.9595 20.7288 24.2291 20.6278 24.3301 20.4259C 25.2736 18.5415 25.8127 16.3878 25.8127 14.1332C 25.8127 6.32631 19.4781 5.13467e-07 11.661 5.13467e-07C 10.8523 5.13467e-07 10.0437 0.0673012 9.26871 0.201904C 9.06654 0.235554 8.86438 0.269204 8.66221 0.302855C 8.46004 0.336506 8.25787 0.403807 8.05571 0.437458C 4.78734 1.27872 1.95701 3.29776 0.0701199 5.98981C -0.0646579 6.19171 0.00273023 6.46091 0.204897 6.59552L 1.85593 7.57138L 3.57434 8.5809Z"/>
<path id="path3_fill" d="M 5.43377 0.0673014C 5.40007 0.0336508 5.36638 0 5.33269 0L 4.35555 0C 4.28816 0 4.25446 0.0336508 4.25446 0.0673014L 0.00896329 11.6095C -0.0247312 11.6768 0.0426588 11.7777 0.110048 11.7777L 1.35674 11.7777C 1.42413 11.7777 1.45782 11.7441 1.49152 11.7104L 2.40127 9.15296L 7.35436 9.15296L 8.26411 11.7104C 8.2978 11.7441 8.33149 11.7777 8.39888 11.7777L 9.64558 11.7777C 9.74666 11.7777 9.78036 11.6768 9.74666 11.6095L 5.43377 0.0673014ZM 2.77191 7.90789L 4.82727 2.11999L 6.84894 7.90789L 2.77191 7.90789Z"/>
<path id="path4_fill" d="M 8.65947 0L 7.51386 0C 7.44647 0 7.37909 0.0673017 7.37909 0.134603L 7.37909 9.08566L 1.38147 0.0673014C 1.34778 0.0336508 1.31408 0 1.28039 0L 0.134778 0C 0.0673889 0 2.05655e-06 0.0673017 2.05655e-06 0.134603L 2.05655e-06 11.6768C 2.05655e-06 11.7441 0.0673889 11.8114 0.134778 11.8114L 1.28039 11.8114C 1.34778 11.8114 1.41517 11.7441 1.41517 11.6768L 1.41517 2.6584L 7.41278 11.7104C 7.44648 11.7441 7.48017 11.7777 7.51386 11.7777L 8.62579 11.7777C 8.69318 11.7777 8.76056 11.7104 8.76056 11.6431L 8.76056 0.100952C 8.79426 0.0336503 8.72686 0 8.65947 0Z"/>
<path id="path5_fill" d="M 7.17692 10.5326L 1.41516 10.5326L 1.41516 0.134602C 1.41516 0.0673009 1.34778 5.13467e-07 1.28039 5.13467e-07L 0.134778 5.13467e-07C 0.0673889 5.13467e-07 2.05655e-06 0.0673009 2.05655e-06 0.134602L 2.05655e-06 11.8114L 6.80628 11.8114C 6.87367 11.8114 6.90737 11.7777 6.90737 11.7441L 7.27801 10.7009C 7.3117 10.6336 7.24431 10.5326 7.17692 10.5326Z"/>
<path id="path6_fill" d="M 8.18775 0.0336506L 7.04214 0.0336506C 6.97475 0.0336506 6.90737 0.100952 6.90737 0.168253L 6.90737 7.80694C 6.90737 9.52312 5.82914 10.6336 4.17811 10.6336C 2.52708 10.6336 1.44886 9.52312 1.44886 7.80694L 1.44886 0.134602C 1.44886 0.0673009 1.38147 5.13467e-07 1.31408 5.13467e-07L 0.134778 5.13467e-07C 0.0673889 5.13467e-07 2.05655e-06 0.0673009 2.05655e-06 0.134602L 2.05655e-06 7.87424C 2.05655e-06 10.2298 1.68472 11.8787 4.14442 11.8787C 6.53672 11.8787 8.28884 10.1961 8.28884 7.87424L 8.28884 0.134602C 8.32253 0.0673009 8.25514 0.0336506 8.18775 0.0336506Z"/>
<path id="path7_fill" d="M 7.51386 10.3307C 8.28884 9.32121 8.28884 8.21074 8.28884 5.9898C 8.28884 3.49966 8.28884 2.35554 7.17692 1.24507C 6.36825 0.437458 5.32372 2.56734e-07 4.14442 2.56734e-07C 2.96511 2.56734e-07 1.92058 0.437458 1.11192 1.24507C -1.04434e-06 2.35554 -2.05655e-06 3.49966 -2.05655e-06 5.9898C -2.05655e-06 8.47995 -1.04434e-06 9.62407 1.11192 10.7345C 1.92058 11.5422 2.96511 11.9796 4.14442 11.9796C 5.08786 11.9796 5.93023 11.7104 6.63781 11.2056L 7.85081 12.4171C 7.8845 12.4507 7.98559 12.4507 8.01928 12.4171L 8.72687 11.7104C 8.76056 11.6768 8.76056 11.5758 8.72687 11.5422L 7.51386 10.3307ZM 6.0987 9.89327C 5.69436 10.2971 5.15525 10.5663 4.58245 10.6672L 4.54875 10.6672C 4.41397 10.7009 4.2792 10.7009 4.17811 10.7009C 3.43684 10.7009 2.72925 10.398 2.22383 9.89327C 1.95428 9.62407 1.78581 9.35486 1.65103 8.98471C 1.44886 8.379 1.41517 7.53773 1.41517 5.9898C 1.41517 3.49966 1.51625 2.793 2.22383 2.08634C 2.72925 1.58158 3.43684 1.27872 4.17811 1.27872C 4.91939 1.27872 5.62698 1.58158 6.13239 2.08634C 6.30087 2.25459 6.43564 2.45649 6.53673 2.6584C 6.87367 3.26411 6.90736 4.13902 6.90736 5.9898C 6.87367 8.4463 6.80628 9.18661 6.0987 9.89327Z"/>
<path id="path8_fill" d="M 8.82795 11.6431L 4.71723 4.61013L 8.28883 0.235554C 8.35622 0.168253 8.28884 0.0336511 8.18775 0.0336511L 6.77258 0.0336511C 6.73889 0.0336511 6.7052 0.0673012 6.6715 0.0673012L 1.41517 6.52821L 1.41517 0.134603C 1.41517 0.0673014 1.34778 -2.56734e-07 1.28039 -2.56734e-07L 0.13478 -2.56734e-07C 0.067391 -2.56734e-07 4.11309e-06 0.0673014 4.11309e-06 0.134603L 4.11309e-06 11.6768C 4.11309e-06 11.7441 0.067391 11.8114 0.13478 11.8114L 1.28039 11.8114C 1.34778 11.8114 1.41517 11.7441 1.41517 11.6768L 1.41517 8.5136L 3.77378 5.68695L 7.24431 11.7441C 7.27801 11.7777 7.3117 11.8114 7.34539 11.8114L 8.72687 11.8114C 8.82795 11.845 8.89534 11.7441 8.82795 11.6431Z"/>
<path id="path9_fill" d="M 4.17812 1.27872C 5.5259 1.27872 6.53673 2.11999 6.83998 3.56696L 6.83998 3.63426L 8.28884 3.63426L 8.25514 3.53331C 7.85081 1.34602 6.30087 2.56734e-07 4.14442 2.56734e-07C 2.99881 2.56734e-07 1.92059 0.437458 1.11192 1.24507C 2.08868e-06 2.35554 -4.11309e-06 3.49966 -4.11309e-06 5.9898C -4.11309e-06 8.47995 2.08868e-06 9.62407 1.11192 10.7345C 1.92059 11.5422 2.99881 11.9796 4.14442 11.9796C 6.30087 11.9796 7.8845 10.6336 8.25514 8.4463L 8.28884 8.34535L 6.87367 8.34535L 6.87367 8.41265C 6.57042 9.82597 5.55959 10.7009 4.17812 10.7009C 3.43684 10.7009 2.72925 10.398 2.22383 9.92692C 1.51625 9.22026 1.41517 8.47995 1.41517 5.9898C 1.41517 3.49966 1.51625 2.793 2.22383 2.05269C 2.72925 1.54793 3.43684 1.27872 4.17812 1.27872Z"/>
<path id="path10_fill" d="M 5.43377 0.0673014C 5.40007 0.0336508 5.36638 0 5.33269 0L 4.35555 0C 4.28816 0 4.25446 0.0336508 4.25446 0.0673014L 0.00895815 11.6095C -0.0247363 11.6768 0.0426588 11.7777 0.110048 11.7777L 1.35674 11.7777C 1.42413 11.7777 1.45783 11.7441 1.49152 11.7104L 2.40127 9.15296L 7.35436 9.15296L 8.2641 11.7104C 8.2978 11.7441 8.3315 11.7777 8.39889 11.7777L 9.64558 11.7777C 9.74666 11.7777 9.78036 11.6768 9.74667 11.6095L 5.43377 0.0673014ZM 2.77191 7.90789L 4.82727 2.11999L 6.84894 7.90789L 2.77191 7.90789Z"/>
<path id="path11_fill" d="M 8.01928 0L 0.134776 0C 0.0673869 0 -1.91531e-14 0.0673017 -1.91531e-14 0.134603L -1.91531e-14 1.17777C -1.91531e-14 1.24507 0.0673869 1.31237 0.134776 1.31237L 3.36945 1.31237L 3.36945 11.7104C 3.36945 11.7777 3.43683 11.845 3.50422 11.845L 4.64983 11.845C 4.71722 11.845 4.78462 11.7777 4.78462 11.7104L 4.78462 1.27872L 8.01928 1.27872C 8.08667 1.27872 8.15406 1.21142 8.15406 1.14412L 8.15406 0.100952C 8.15406 0.0336503 8.12036 0 8.01928 0Z"/>
<path id="path12_fill" d="M 6.40195 5.75425C 7.37909 5.31679 7.98559 4.34093 7.98559 3.19681C 7.98559 1.24507 6.60411 5.13467e-07 4.48136 5.13467e-07L 0.134776 5.13467e-07C 0.0673869 5.13467e-07 -1.91531e-14 0.0673009 -1.91531e-14 0.134602L -1.91531e-14 11.6768C -1.91531e-14 11.7441 0.0673869 11.8114 0.134776 11.8114L 4.61615 11.8114C 6.83998 11.8114 8.15406 10.5663 8.15406 8.5136C 8.18776 7.26853 7.51387 6.22536 6.40195 5.75425ZM 1.41517 1.31237L 4.38028 1.31237C 5.79545 1.31237 6.57042 2.01904 6.57042 3.23046C 6.57042 4.44188 5.76175 5.18219 4.38028 5.18219L 1.41517 5.18219L 1.41517 1.31237ZM 4.51506 10.5326L 1.41517 10.5326L 1.41517 6.46091L 4.51506 6.46091C 5.89653 6.46091 6.77259 7.23488 6.77259 8.5136C 6.77259 9.75867 5.89653 10.5326 4.51506 10.5326Z"/>
<path id="path13_fill" d="M 8.18775 0.0336506L 7.04214 0.0336506C 6.97475 0.0336506 6.90737 0.100952 6.90737 0.168253L 6.90737 7.80694C 6.90737 9.52312 5.82914 10.6336 4.17811 10.6336C 2.52708 10.6336 1.44886 9.52312 1.44886 7.80694L 1.44886 0.134602C 1.44886 0.0673009 1.38147 5.13467e-07 1.31408 5.13467e-07L 0.134778 5.13467e-07C 0.0673889 5.13467e-07 2.05655e-06 0.0673009 2.05655e-06 0.134602L 2.05655e-06 7.87424C 2.05655e-06 10.2298 1.68472 11.8787 4.14442 11.8787C 6.53672 11.8787 8.28884 10.1961 8.28884 7.87424L 8.28884 0.134602C 8.28884 0.0673009 8.25514 0.0336506 8.18775 0.0336506Z"/>
<path id="path14_fill" d="M 10.041 2.39102e-15L 8.86165 2.39102e-15C 8.82795 2.39102e-15 8.76056 0.0336508 8.76056 0.0673014L 5.12156 8.10979L 1.41517 0.0673014C 1.38147 0.0336508 1.34778 2.39102e-15 1.31409 2.39102e-15L 0.134782 2.39102e-15C 0.067393 2.39102e-15 -4.11309e-06 0.0673017 -4.11309e-06 0.134603L -4.11309e-06 11.6768C -4.11309e-06 11.7441 0.067393 11.8114 0.134782 11.8114L 1.28039 11.8114C 1.34778 11.8114 1.41517 11.7441 1.41517 11.6768L 1.41517 3.26411L 4.48137 9.89327C 4.51506 9.92692 4.54875 9.96057 4.58244 9.96057L 5.59328 9.96057C 5.62697 9.96057 5.69437 9.92692 5.69437 9.89327L 8.69317 3.26411L 8.69317 11.6768C 8.69317 11.7441 8.76056 11.8114 8.82795 11.8114L 9.97356 11.8114C 10.0409 11.8114 10.1083 11.7441 10.1083 11.6768L 10.1083 0.100952C 10.142 0.0336503 10.1083 2.39102e-15 10.041 2.39102e-15Z"/>
</defs>
</svg>
